<?xml version="1.0" encoding="UTF-8"?>
<svg xmlns="http://www.w3.org/2000/svg" viewBox="0 0 249 249"><path fill="#2660A4" fill-rule="evenodd" d="M124.5 249c68.76 0 124.5-55.74 124.5-124.5C249 55.74 193.26 0 124.5 0 55.74 0 0 55.74 0 124.5 0 193.26 55.74 249 124.5 249zm70.836-164.04c-.853-.427-1.493-.427-1.92 0l-20.16 17.92c.64-2.56 1.067-5.333 1.28-8.32.213-2.987.32-6.187.32-9.6 0-16-4.16-28.16-12.48-36.48-8.32-8.32-20.16-12.48-35.52-12.48l-38.08.32v142.4l-35.2 32c-.64.64-.747 1.28-.32 1.92.213.213.533.32.96.32.64 0 .96-.107.96-.32L195.016 87.2c.64-.64.747-1.387.32-2.24zM95 130.32v-88l32.96-.32c13.013.64 22.933 4.64 29.76 12 6.827 7.36 10.24 17.867 10.24 31.52 0 5.12-.373 9.867-1.12 14.24-.747 4.373-1.973 8.373-3.68 12L144.6 128.4c-2.133.427-4.427.853-6.88 1.28-2.453.427-4.853.64-7.2.64H95zm0 6.32h27.84c2.56 0 4.96-.053 7.2-.16 2.24-.107 4.213-.267 5.92-.48L95 172.8v-36.16zM194.32 212l-.32.32.32.32c.427 0 .64-.107.64-.32-.213-.213-.427-.32-.64-.32zm0-16c-.213 0-.32.213-.32.64 0 .427.107.64.32.64.427 0 .64-.213.64-.64 0-.427-.213-.64-.64-.64zm-.68-16c-.427 0-.64.32-.64.96 0 .64.213.96.64.96.64 0 .96-.32.96-.96 0-.64-.32-.96-.96-.96zm.32-16c-.64 0-.96.32-.96.96 0 .64.32.96.96.96.853 0 1.28-.32 1.28-.96 0-.64-.427-.96-1.28-.96zm.32-16c-.853 0-1.28.427-1.28 1.28s.427 1.28 1.28 1.28 1.28-.427 1.28-1.28-.427-1.28-1.28-1.28zm0-16c-.853 0-1.28.533-1.28 1.6 0 .853.427 1.28 1.28 1.28 1.067 0 1.6-.427 1.6-1.28 0-1.067-.533-1.6-1.6-1.6zm-.68-16c-1.067 0-1.6.64-1.6 1.92 0 1.067.533 1.6 1.6 1.6 1.28 0 1.92-.533 1.92-1.6 0-1.28-.64-1.92-1.92-1.92zm.32-16c-1.28 0-1.92.747-1.92 2.24 0 1.28.64 1.92 1.92 1.92 1.493 0 2.24-.64 2.24-1.92 0-1.493-.747-2.24-2.24-2.24zm-15.6 112l-.32.32c0 .213.107.32.32.32.213 0 .32-.107.32-.32 0-.213-.107-.32-.32-.32zm.32-16c-.427 0-.64.213-.64.64 0 .427.213.64.64.64.427 0 .64-.213.64-.64 0-.427-.213-.64-.64-.64zm.32-16c-.64 0-.96.32-.96.96 0 .64.32.96.96.96.427 0 .64-.32.64-.96 0-.64-.213-.96-.64-.96zm0-16c-.64 0-.96.32-.96.96 0 .64.32.96.96.96.64 0 .96-.32.96-.96 0-.64-.32-.96-.96-.96zm-.68-16c-.853 0-1.28.427-1.28 1.28s.427 1.28 1.28 1.28 1.28-.427 1.28-1.28-.427-1.28-1.28-1.28zm.32-16c-1.067 0-1.6.533-1.6 1.6 0 .853.533 1.28 1.6 1.28 1.067 0 1.6-.427 1.6-1.28 0-1.067-.533-1.6-1.6-1.6zm0-16c-1.067 0-1.6.64-1.6 1.92 0 1.067.533 1.6 1.6 1.6 1.067 0 1.6-.533 1.6-1.6 0-1.28-.533-1.92-1.6-1.92zm-15.28 96l-.32.32.32.32c.213 0 .32-.107.32-.32 0-.213-.107-.32-.32-.32zm0-16c-.213 0-.32.213-.32.64 0 .427.107.64.32.64.427 0 .64-.213.64-.64 0-.427-.213-.64-.64-.64zm-.68-16c-.427 0-.64.32-.64.96 0 .64.213.96.64.96.64 0 .96-.32.96-.96 0-.64-.32-.96-.96-.96zm.32-16c-.64 0-.96.32-.96.96 0 .64.32.96.96.96.853 0 1.28-.32 1.28-.96 0-.64-.427-.96-1.28-.96zm.32-16c-.853 0-1.28.427-1.28 1.28s.427 1.28 1.28 1.28 1.28-.427 1.28-1.28-.427-1.28-1.28-1.28zm0-16c-.853 0-1.28.533-1.28 1.6 0 .853.427 1.28 1.28 1.28 1.067 0 1.6-.427 1.6-1.28 0-1.067-.533-1.6-1.6-1.6zm-15.64 80.32l-.32-.32-.32.32c0 .213.107.32.32.32.213 0 .32-.107.32-.32zm0-16.32c-.427 0-.64.213-.64.64 0 .427.213.64.64.64.427 0 .64-.213.64-.64 0-.427-.213-.64-.64-.64zm.32-16c-.64 0-.96.32-.96.96 0 .64.32.96.96.96.427 0 .64-.32.64-.96 0-.64-.213-.96-.64-.96zm-.68-16c-.853 0-1.28.32-1.28.96 0 .64.427.96 1.28.96.64 0 .96-.32.96-.96 0-.64-.32-.96-.96-.96zm0-16c-.853 0-1.28.427-1.28 1.28s.427 1.28 1.28 1.28 1.28-.427 1.28-1.28-.427-1.28-1.28-1.28zm-14.96 64l-.32.32.32.32c.213 0 .32-.107.32-.32 0-.213-.107-.32-.32-.32zm-.68-16c-.427 0-.64.213-.64.64 0 .427.213.64.64.64.427 0 .64-.213.64-.64 0-.427-.213-.64-.64-.64zm0-16c-.427 0-.64.32-.64.96 0 .64.213.96.64.96.64 0 .96-.32.96-.96 0-.64-.32-.96-.96-.96zm.32-16c-.64 0-.96.32-.96.96 0 .64.32.96.96.96.853 0 1.28-.32 1.28-.96 0-.64-.427-.96-1.28-.96zm-15.32 48.32l-.32-.32-.32.32c0 .213.107.32.32.32.213 0 .32-.107.32-.32zm0-16.32c-.427 0-.64.213-.64.64 0 .427.213.64.64.64.213 0 .32-.213.32-.64 0-.427-.107-.64-.32-.64zm.32-16c-.64 0-.96.32-.96.96 0 .64.32.96.96.96.427 0 .64-.32.64-.96 0-.64-.213-.96-.64-.96zm-15.64 32l-.32.32c0 .213.107.32.32.32.213 0 .32-.107.32-.32 0-.213-.107-.32-.32-.32zm-.68-16c-.427 0-.64.213-.64.64 0 .427.213.64.64.64.427 0 .64-.213.64-.64 0-.427-.213-.64-.64-.64zm0-16c-.427 0-.64.32-.64.96 0 .64.213.96.64.96.64 0 .96-.32.96-.96 0-.64-.32-.96-.96-.96zm-14.68 32.32l-.32-.32-.64.32c0 .213.213.32.64.32.213 0 .32-.107.32-.32zM85.64 196c-.427 0-.64.213-.64.64 0 .427.213.64.64.64.213 0 .32-.213.32-.64 0-.427-.107-.64-.32-.64zm-15.32 16l-.32.32c0 .213.107.32.32.32.213 0 .32-.107.32-.32 0-.213-.107-.32-.32-.32z"/></svg>
