<?xml version="1.0" standalone="no"?>
<!DOCTYPE svg PUBLIC "-//W3C//DTD SVG 20010904//EN"
 "http://www.w3.org/TR/2001/REC-SVG-20010904/DTD/svg10.dtd">
<svg version="1.0" xmlns="http://www.w3.org/2000/svg"
 width="1366.000000pt" height="643.000000pt" viewBox="0 0 1366.000000 643.000000"
 preserveAspectRatio="xMidYMid meet">
<metadata>
Created by potrace 1.13, written by Peter Selinger 2001-2015
</metadata>
<g transform="translate(0.000000,643.000000) scale(0.100000,-0.100000)"
fill="#000000" stroke="none">
<path d="M9735 4261 c-6 -5 -80 -41 -166 -80 l-156 -71 -495 0 -495 0 -7 -31
c-3 -17 -6 -35 -6 -40 0 -5 128 -9 285 -9 l286 0 -3 -61 -3 -62 -355 -163
-355 -164 -533 0 -532 0 -11 28 c-28 73 21 219 102 300 128 128 345 159 571
81 49 -17 96 -28 103 -26 7 3 15 20 17 37 5 31 2 34 -46 56 -75 33 -191 54
-308 54 -167 0 -286 -42 -389 -137 -100 -93 -145 -201 -137 -325 l5 -68 -138
0 c-127 0 -139 -2 -139 -18 0 -10 -4 -22 -9 -27 -5 -6 -66 -104 -135 -219
-109 -180 -127 -214 -124 -245 l3 -36 46 75 c26 41 95 155 155 253 l108 177
699 0 700 0 151 69 c83 38 266 122 406 186 675 310 907 415 917 415 4 0 73
-109 153 -242 139 -232 145 -241 148 -205 3 33 -13 64 -132 261 -75 123 -136
228 -136 235 0 13 -32 15 -45 2z"/>
<path d="M2415 4119 c-314 -28 -540 -219 -624 -528 -11 -41 -22 -76 -24 -78
-3 -2 -49 12 -103 32 -55 19 -108 35 -118 35 -11 0 -56 -32 -100 -72 -116
-103 -130 -114 -122 -101 13 24 8 277 -8 346 -42 180 -160 300 -337 342 -48
11 -128 15 -326 15 l-263 0 -1 -777 -1 -778 -194 -175 c-120 -108 -194 -181
-194 -193 0 -11 6 -17 14 -15 8 2 270 233 582 513 313 281 655 588 761 683
l193 173 42 -15 c24 -8 171 -60 328 -116 157 -56 328 -117 380 -135 52 -18
248 -88 435 -154 187 -67 345 -121 351 -121 7 0 15 7 18 15 6 17 8 17 -159 75
-60 21 -276 98 -480 170 -203 72 -424 151 -490 174 -139 49 -134 40 -89 177
64 195 199 333 388 396 74 25 95 27 241 27 176 1 221 -8 344 -67 239 -116 370
-447 333 -845 -38 -414 -212 -643 -540 -711 -88 -18 -258 -14 -346 9 -311 79
-475 347 -478 779 l-1 140 -34 12 c-19 6 -37 8 -41 4 -14 -14 -6 -319 12 -408
62 -321 223 -514 496 -598 65 -20 97 -23 235 -23 136 0 172 3 240 22 260 74
436 267 505 553 48 203 48 495 0 684 -77 302 -298 503 -581 530 -128 12 -156
12 -244 4z m-1502 -94 c233 -49 348 -223 334 -505 -4 -70 -13 -127 -28 -170
-20 -60 -29 -72 -120 -154 -66 -59 -112 -91 -137 -98 -20 -5 -142 -12 -269
-15 l-233 -6 0 482 0 481 193 0 c128 0 215 -5 260 -15z m-33 -1018 c0 -2 -78
-73 -172 -158 -95 -85 -190 -169 -210 -188 l-38 -33 0 191 0 191 210 0 c116 0
210 -2 210 -3z"/>
<path d="M11346 4093 c-293 -62 -475 -268 -543 -612 -18 -91 -25 -380 -11
-457 l8 -41 -98 -41 c-53 -22 -100 -38 -103 -36 -3 2 -71 111 -150 244 -79
132 -147 240 -151 240 -5 0 -8 -14 -8 -31 0 -22 39 -95 140 -260 77 -127 140
-234 140 -239 0 -21 -2 -21 485 185 160 68 448 189 640 270 193 81 386 163
430 183 l80 37 720 5 c674 5 720 6 723 22 3 17 -30 18 -539 20 l-543 3 -9 42
c-10 53 11 145 49 209 47 81 152 156 253 184 102 27 284 7 423 -46 53 -21 62
-16 72 32 7 30 6 32 -51 53 -137 50 -347 67 -465 36 -231 -60 -388 -259 -364
-462 l6 -53 -129 0 -129 0 -313 -131 c-925 -387 -1024 -427 -1030 -416 -13 24
-17 195 -8 301 34 393 205 622 514 686 29 6 100 11 157 11 157 0 291 -36 407
-111 34 -22 68 -40 76 -40 8 0 19 17 24 38 13 45 10 48 -104 103 -127 62 -252
89 -404 88 -70 0 -157 -7 -195 -16z"/>
<path d="M3840 3495 l0 -605 -168 0 c-171 0 -202 5 -325 55 -16 7 -18 4 -15
-16 2 -18 15 -28 53 -42 28 -10 52 -23 53 -28 2 -5 262 -9 658 -9 l654 0 138
-75 c76 -41 141 -75 146 -75 4 0 6 10 4 23 -2 17 -33 38 -138 94 l-135 73
-422 0 -423 0 0 605 0 605 -40 0 -40 0 0 -605z"/>
<path d="M5120 3215 l0 -885 193 0 192 0 -70 40 c-66 37 -75 40 -152 40 l-83
0 0 845 0 845 -40 0 -40 0 0 -885z"/>
<path d="M6390 3215 l0 -885 40 0 40 0 0 885 0 885 -40 0 -40 0 0 -885z"/>
<path d="M10130 3215 l0 -885 40 0 40 0 0 885 0 885 -40 0 -40 0 0 -885z"/>
<path d="M9008 3773 l-38 -15 0 -714 0 -714 40 0 40 0 0 730 c0 402 -1 730 -2
729 -2 0 -20 -7 -40 -16z"/>
<path d="M7190 3441 c0 -17 98 -97 167 -138 37 -22 130 -70 206 -107 173 -83
252 -133 310 -195 71 -76 91 -123 92 -211 0 -65 -4 -84 -33 -142 -85 -174
-294 -272 -509 -241 -110 17 -198 46 -276 93 -37 23 -72 38 -77 35 -6 -3 -10
-23 -10 -44 0 -37 2 -40 71 -76 111 -58 185 -76 340 -82 154 -6 203 4 322 64
259 130 337 461 156 658 -70 76 -153 128 -370 234 -112 54 -221 113 -243 130
-32 26 -47 31 -92 31 -30 0 -54 -4 -54 -9z"/>
<path d="M12550 3441 c0 -17 98 -97 167 -138 37 -22 127 -68 198 -102 177 -85
263 -140 328 -211 96 -103 112 -215 48 -344 -73 -148 -240 -245 -424 -246
-118 0 -284 48 -376 110 -52 34 -71 27 -71 -25 0 -30 5 -35 68 -68 115 -60
191 -79 343 -84 151 -6 201 3 319 60 81 39 175 132 212 209 78 160 57 333 -53
453 -70 76 -155 130 -361 229 -106 52 -215 110 -243 130 -42 30 -58 36 -102
36 -29 0 -53 -4 -53 -9z"/>
<path d="M10857 2867 c-33 -13 -33 -31 7 -128 115 -285 363 -434 696 -416 157
9 295 52 433 135 59 35 62 40 65 80 4 53 -4 53 -82 2 -145 -94 -297 -140 -463
-140 -129 0 -188 12 -289 60 -134 64 -250 209 -304 378 -14 44 -18 46 -63 29z"/>
<path d="M3840 2550 l0 -210 399 0 c430 0 411 -2 411 51 0 18 -12 19 -365 19
l-365 0 0 175 0 175 -40 0 -40 0 0 -210z"/>
<path d="M6161 2460 c-79 -132 -146 -240 -149 -240 -2 0 -49 24 -104 53 l-99
52 54 3 c53 3 55 4 60 35 2 18 3 35 0 40 -2 4 -66 7 -142 7 -75 0 -141 4 -147
9 -5 4 -89 49 -186 100 -167 86 -178 91 -178 69 0 -19 12 -30 53 -50 28 -15
194 -104 367 -198 173 -93 322 -170 330 -170 23 0 300 463 300 501 0 16 -4 29
-8 29 -4 0 -72 -108 -151 -240z"/>
</g>
</svg>
