<?xml version="1.0" standalone="no"?>
<!DOCTYPE svg PUBLIC "-//W3C//DTD SVG 20010904//EN"
 "http://www.w3.org/TR/2001/REC-SVG-20010904/DTD/svg10.dtd">
<svg version="1.0" xmlns="http://www.w3.org/2000/svg"
 width="1366.000000pt" height="643.000000pt" viewBox="0 0 1366.000000 643.000000"
 preserveAspectRatio="xMidYMid meet">
<metadata>
Created by potrace 1.13, written by Peter Selinger 2001-2015
</metadata>
<g transform="translate(0.000000,643.000000) scale(0.100000,-0.100000)"
fill="#000000" stroke="none">
<path d="M6490 6360 c-1104 -104 -2075 -626 -2755 -1480 -448 -563 -726 -1217
-826 -1950 -29 -209 -37 -657 -15 -880 58 -611 251 -1193 564 -1700 58 -94
142 -220 163 -244 4 -5 50 30 101 77 564 520 1358 884 2248 1028 655 106 1382
86 2015 -56 784 -176 1497 -533 1968 -985 38 -36 72 -66 77 -68 10 -4 156 215
235 352 282 493 453 1047 506 1635 15 176 6 665 -15 816 -73 504 -196 908
-393 1293 -607 1185 -1706 1964 -3023 2143 -176 23 -680 35 -850 19z m545
-1544 c409 -63 764 -289 989 -631 160 -241 236 -496 236 -790 0 -243 -51 -445
-166 -665 -171 -325 -458 -569 -809 -688 -358 -122 -745 -96 -1085 73 -400
198 -678 558 -775 1005 -23 104 -31 351 -15 459 91 642 573 1135 1205 1236
108 17 310 18 420 1z"/>
</g>
</svg>
