<?xml version="1.0" standalone="no"?>
<!DOCTYPE svg PUBLIC "-//W3C//DTD SVG 20010904//EN"
 "http://www.w3.org/TR/2001/REC-SVG-20010904/DTD/svg10.dtd">
<svg version="1.0" xmlns="http://www.w3.org/2000/svg"
 width="700.000000pt" height="700.000000pt" viewBox="0 0 700.000000 700.000000"
 preserveAspectRatio="xMidYMid meet">
<metadata>
Created by potrace 1.11, written by Peter Selinger 2001-2013
</metadata>
<g transform="translate(0.000000,700.000000) scale(0.100000,-0.100000)"
fill="#000000" stroke="none">
<path d="M3298 6995 c-2 -1 -41 -5 -88 -9 -100 -7 -225 -22 -295 -36 -27 -5
-61 -12 -75 -14 -431 -79 -908 -273 -1275 -519 -69 -46 -297 -217 -305 -228
-3 -3 -25 -23 -50 -44 -84 -69 -229 -214 -365 -365 -105 -117 -283 -369 -382
-540 -158 -275 -309 -656 -369 -933 -20 -90 -53 -272 -59 -322 -4 -33 -9 -69
-11 -80 -18 -95 -25 -522 -12 -690 8 -104 25 -233 42 -320 2 -11 6 -36 10 -55
10 -58 13 -72 35 -165 22 -90 84 -302 101 -340 4 -11 25 -65 46 -120 20 -55
64 -156 97 -225 452 -934 1280 -1618 2274 -1875 72 -19 142 -36 155 -39 13 -2
60 -11 106 -20 46 -9 111 -19 145 -22 34 -3 65 -8 68 -9 15 -10 227 -20 409
-20 188 0 341 8 430 21 144 21 295 48 345 61 33 8 67 16 75 18 109 22 388 117
549 187 121 53 308 148 353 179 14 11 29 19 33 19 24 0 381 256 495 355 111
96 296 282 365 365 21 25 41 47 44 50 4 3 45 55 91 115 332 436 547 915 654
1456 14 70 28 155 32 190 3 35 8 67 10 70 24 41 23 779 -1 818 -1 4 -6 33 -9
66 -3 33 -8 69 -10 80 -2 11 -11 61 -21 110 -98 525 -337 1052 -670 1480 -43
55 -81 102 -84 105 -4 3 -31 34 -61 69 -299 347 -754 683 -1181 872 -255 112
-590 217 -814 253 -54 9 -239 35 -295 41 -56 7 -526 16 -532 10z m497 -1019
c452 -51 786 -264 965 -616 75 -145 126 -336 146 -545 8 -76 8 -435 0 -481 -3
-16 -8 -57 -11 -92 -4 -35 -11 -77 -16 -94 -5 -18 -8 -33 -6 -34 1 -1 21 14
43 34 67 60 365 325 388 345 12 10 47 42 80 70 51 46 106 69 106 46 0 -4 3
-14 6 -23 6 -16 -20 -45 -151 -161 -44 -38 -86 -77 -95 -85 -9 -8 -76 -69
-150 -134 -74 -66 -160 -143 -190 -170 -84 -78 -159 -144 -240 -216 -40 -36
-99 -88 -129 -116 -31 -28 -76 -68 -101 -90 -25 -21 -52 -46 -60 -54 -8 -8
-78 -71 -155 -140 -77 -68 -142 -127 -145 -130 -3 -3 -43 -39 -90 -80 -47 -41
-92 -82 -100 -90 -8 -8 -76 -69 -150 -135 -74 -66 -137 -122 -140 -125 -3 -3
-45 -41 -95 -85 -49 -44 -92 -82 -95 -85 -3 -3 -70 -64 -150 -135 -158 -141
-215 -192 -240 -215 -21 -20 -163 -147 -219 -196 -24 -22 -56 -50 -71 -64 -14
-14 -64 -59 -111 -99 -46 -41 -89 -80 -94 -85 -6 -6 -51 -47 -100 -91 -50 -43
-97 -86 -106 -95 -8 -8 -42 -38 -75 -67 -32 -28 -70 -62 -85 -75 -14 -12 -63
-57 -108 -98 -46 -41 -89 -79 -95 -85 -6 -5 -51 -46 -101 -90 -109 -97 -93
-83 -200 -180 -112 -102 -128 -113 -149 -96 -9 8 -16 19 -16 26 0 14 127 136
334 320 27 24 233 211 247 225 9 8 54 49 99 90 46 41 93 84 104 95 12 11 44
40 71 64 28 25 72 65 100 90 l50 46 1 1995 c1 1097 2 1998 3 2002 2 15 1171
18 1296 4z m1697 -1795 c10 -1 22 -43 19 -66 -4 -27 -13 -36 -49 -41 -36 -6
-62 16 -62 54 0 44 23 63 65 57 11 -2 23 -4 27 -4z m-436 -454 c12 -19 11 -58
-2 -71 -31 -31 -76 -14 -76 28 0 38 20 59 51 51 14 -4 26 -7 27 -8z m421 -2
c16 -11 20 -22 17 -42 -6 -31 -19 -43 -49 -43 -60 0 -60 98 0 100 6 0 20 -7
32 -15z m-861 -443 c32 -21 18 -72 -20 -72 -34 0 -49 22 -36 54 9 25 34 33 56
18z m430 0 c18 -12 25 -44 13 -58 -17 -21 -66 -17 -79 6 -17 33 34 74 66 52z
m453 -14 c12 -31 -4 -58 -34 -58 -26 0 -45 26 -37 50 12 36 59 41 71 8z
m-1335 -444 c19 -19 20 -26 4 -42 -30 -30 -78 0 -58 37 13 25 33 27 54 5z
m456 -5 c9 -15 8 -24 -1 -35 -28 -33 -80 -3 -59 35 6 12 19 21 30 21 11 0 24
-9 30 -21z m414 8 c28 -21 13 -57 -25 -57 -25 0 -29 4 -29 28 0 44 20 54 54
29z m450 0 c26 -19 13 -57 -19 -57 -29 0 -47 27 -34 52 12 21 29 23 53 5z
m-1745 -451 c9 -11 8 -18 -4 -30 -9 -9 -18 -16 -20 -16 -2 0 -11 7 -20 16 -12
12 -13 19 -4 30 6 8 17 14 24 14 7 0 18 -6 24 -14z m418 3 c17 -17 4 -39 -23
-39 -17 0 -24 6 -24 18 0 32 25 43 47 21z m453 -4 c15 -19 5 -35 -24 -35 -30
0 -37 9 -25 31 12 23 32 24 49 4z m443 3 c7 -20 -4 -38 -22 -38 -24 0 -30 8
-24 31 6 21 39 26 46 7z m427 -3 c16 -19 4 -35 -26 -35 -17 0 -24 6 -24 18 0
34 28 43 50 17z m-2633 -446 c14 -14 6 -39 -12 -39 -18 0 -28 17 -21 35 6 18
18 19 33 4z m456 -9 c6 -23 -7 -34 -28 -26 -18 7 -20 32 -2 39 21 9 25 8 30
-13z m420 8 c7 -21 -4 -38 -23 -38 -12 0 -17 6 -15 18 2 9 4 20 4 25 2 12 29
8 34 -5z m451 -4 c7 -19 -1 -34 -19 -34 -21 0 -28 19 -15 35 16 19 26 19 34
-1z m410 10 c18 -7 21 -30 6 -39 -19 -12 -39 3 -33 24 6 24 5 23 27 15z m464
-17 c4 -22 -27 -35 -38 -16 -10 15 7 42 24 36 6 -2 12 -11 14 -20z m417 -2 c0
-11 -8 -21 -17 -23 -14 -3 -18 3 -18 23 0 20 4 26 18 23 9 -2 17 -12 17 -23z
m-3052 -458 c-3 -5 -10 -4 -15 1 -6 6 -7 16 -3 22 6 9 9 9 16 -1 4 -7 5 -17 2
-22z m435 15 c2 -7 -6 -12 -17 -12 -21 0 -27 11 -14 24 9 9 26 2 31 -12z m437
-12 c-6 -9 -9 -9 -16 1 -10 17 0 34 13 21 6 -6 7 -16 3 -22z m430 20 c9 -15
-3 -30 -20 -24 -7 3 -11 12 -8 20 6 16 19 18 28 4z m451 -1 c3 -6 0 -15 -7
-20 -14 -8 -32 9 -23 23 7 11 22 10 30 -3z m439 -19 c-6 -9 -9 -9 -16 1 -10
17 0 34 13 21 6 -6 7 -16 3 -22z m433 12 c2 -7 -5 -12 -17 -12 -14 0 -19 5
-14 15 6 17 25 15 31 -3z m442 -3 c0 -5 -7 -9 -15 -9 -15 0 -20 12 -9 23 8 8
24 -1 24 -14z m-3070 -439 c0 -5 -2 -10 -4 -10 -3 0 -8 5 -11 10 -3 6 -1 10 4
10 6 0 11 -4 11 -10z m1740 0 c0 -5 -2 -10 -4 -10 -3 0 -8 5 -11 10 -3 6 -1
10 4 10 6 0 11 -4 11 -10z m1330 6 c0 -3 -4 -8 -10 -11 -5 -3 -10 -1 -10 4 0
6 5 11 10 11 6 0 10 -2 10 -4z"/>
<path d="M2762 5812 l-92 -3 2 -1237 3 -1237 510 1 c546 0 601 3 769 33 80 15
115 26 134 43 15 13 31 28 38 33 13 11 150 134 234 210 31 28 93 83 139 124
45 41 91 91 101 110 43 85 83 250 107 431 13 106 9 486 -6 565 -8 39 -15 78
-17 88 -11 63 -51 184 -83 253 -133 283 -367 470 -686 548 -159 38 -195 41
-630 41 -236 0 -472 -1 -523 -3z"/>
<path d="M3777 3174 c-8 -9 -274 -15 -664 -16 l-443 0 0 -505 c0 -558 -6 -519
67 -453 61 57 181 165 337 305 50 44 97 87 106 95 9 8 54 49 100 90 46 41 95
85 109 98 14 13 40 35 56 50 17 15 70 63 120 107 49 44 99 89 110 100 12 11
47 42 78 69 31 27 57 52 57 56 0 6 -27 10 -33 4z"/>
</g>
</svg>
